<?xml version="1.0" standalone="no"?>
<!DOCTYPE svg PUBLIC "-//W3C//DTD SVG 20010904//EN"
 "http://www.w3.org/TR/2001/REC-SVG-20010904/DTD/svg10.dtd">
<svg version="1.0" xmlns="http://www.w3.org/2000/svg"
 width="508.000000pt" height="510.000000pt" viewBox="0 0 508.000000 510.000000"
 preserveAspectRatio="xMidYMid meet">

<g transform="translate(0.000000,510.000000) scale(0.100000,-0.100000)"
fill="#000000" stroke="none">
<path d="M2180 5045 c-432 -54 -849 -229 -1202 -505 -105 -82 -343 -319 -432
-430 -231 -289 -402 -648 -476 -1000 -40 -191 -53 -358 -47 -610 5 -239 18
-350 59 -525 55 -239 188 -545 325 -755 185 -281 452 -550 734 -739 292 -196
588 -313 949 -375 419 -73 889 -31 1287 114 587 215 1104 685 1389 1265 175
356 255 741 241 1164 -8 251 -34 420 -97 637 -111 379 -323 734 -616 1028
-399 402 -855 640 -1384 723 -137 21 -581 26 -730 8z m695 -239 c232 -36 452
-108 674 -222 207 -106 361 -220 549 -407 374 -370 591 -795 658 -1287 20
-150 23 -470 5 -610 -24 -189 -98 -476 -148 -574 l-15 -28 -28 33 -28 34 -451
3 -451 3 16 23 c8 13 39 77 69 142 30 66 58 120 63 121 4 1 22 -18 40 -43 50
-68 83 -84 173 -84 195 0 331 92 424 285 129 267 148 651 43 860 -79 156 -191
224 -398 243 l-85 7 -5 61 c-5 55 -18 86 -45 106 -5 4 -650 8 -1432 8 l-1422
0 -28 -24 -28 -24 -3 -234 c-4 -264 8 -446 44 -661 42 -250 113 -481 213 -689
l46 -97 -422 -3 -422 -3 -29 -28 -30 -29 -21 48 c-114 256 -172 682 -142 1037
21 245 56 402 138 617 160 417 489 818 898 1091 274 184 645 311 990 339 134
11 478 3 590 -14z m1272 -1813 c119 -56 140 -379 42 -635 -31 -78 -80 -138
-129 -153 -51 -16 -64 58 -25 140 30 64 29 97 -5 153 -15 25 -64 58 -97 67 -1
0 7 50 17 111 11 61 22 153 25 205 10 150 6 143 75 136 33 -4 77 -15 97 -24z
m-3487 -1624 c242 -76 634 -164 904 -204 953 -139 1823 -83 2733 175 75 21
139 38 140 36 2 -1 -19 -34 -46 -73 -303 -440 -755 -772 -1241 -912 -387 -111
-831 -116 -1230 -12 -490 127 -952 455 -1279 911 -33 47 -61 88 -61 93 0 10 8
9 80 -14z"/>
<path d="M2477 4550 c-55 -44 -156 -228 -188 -346 -17 -62 -20 -98 -17 -178 3
-88 8 -110 35 -169 39 -83 112 -179 161 -212 53 -36 114 -35 152 4 32 32 45
69 36 104 -3 13 -30 57 -60 98 -30 40 -61 94 -68 119 -31 108 -4 237 77 370
25 39 48 83 51 96 8 33 -13 90 -43 114 -34 27 -102 27 -136 0z"/>
<path d="M2813 4555 c-32 -22 -126 -152 -161 -221 -41 -82 -62 -167 -62 -255
0 -133 38 -225 141 -348 60 -71 106 -101 157 -101 62 0 122 83 106 146 -4 15
-32 55 -63 88 -141 152 -142 271 -3 465 30 42 59 88 64 103 13 36 -6 92 -39
118 -31 24 -108 27 -140 5z"/>
<path d="M2088 4526 c-52 -51 -134 -223 -154 -325 -27 -136 -6 -276 61 -416
67 -140 108 -184 172 -185 50 0 81 19 104 67 25 52 22 69 -26 148 -63 105 -79
159 -79 265 1 106 27 191 82 273 39 57 45 79 32 126 -14 54 -50 81 -110 81
-40 0 -52 -5 -82 -34z"/>
</g>
</svg>
